<svg enable-background="new 0 0 440 372" height="372" viewBox="0 0 440 372" width="440" xmlns="http://www.w3.org/2000/svg"><path d="m109.6 257.6 130.1-143h-199.7v143zm220.5-183h53.6c5.3 0 10.4 2.1 14.1 5.9 3.7 3.7 5.9 8.8 5.9 14.1v27.2h16.3c5.3 0 10.7 2.1 14.1 5.9 3.7 3.7 5.9 9.1 5.9 14.1v88.3c0 5.3-2.1 10.4-5.9 14.1-3.5 3.7-8.8 5.9-14.1 5.9h-16.3v27.5c0 5.1-2.1 10.4-5.9 14.1-3.7 3.7-8.8 5.9-14.1 5.9h-256.2l-61.6 67.8c-7.5 8.3-20 8.8-28.3 1.3s-8.8-20-1.3-28.3l37.1-40.8h-53.4c-5.1 0-10.4-2.1-14.1-5.9s-5.9-9-5.9-14.1v-183c0-5.3 2.1-10.4 5.9-14.1 3.7-3.7 9.1-5.9 14.1-5.9h256l61.9-68c7.5-8.3 20.3-8.8 28.3-1.3 8.3 7.5 8.8 20 1.3 28.3zm33.6 67.2v-27.2h-69.9l-130.1 143h200v-27.5z" fill="#ffbe00"/></svg>