<svg enable-background="new 0 0 200 200" height="200" viewBox="0 0 200 200" width="200" xmlns="http://www.w3.org/2000/svg"><g fill="#fff" stroke="#fff" stroke-miterlimit="10"><path d="m45.5 183.9 13.1-20.2"/><path d="m42.6 181.9 13.8-19.7"/><path d="m39.8 179.8 14.5-19.1"/><path d="m37 177.7 15.1-18.7"/><path d="m34.4 175.5 15.7-18.1"/><path d="m31.8 173.1 16.4-17.5"/><path d="m29.3 170.7 16.9-17"/><path d="m26.8 168.2 17.6-16.4"/><path d="m24.5 165.6 18.1-15.7"/><path d="m22.3 162.9 18.6-15.1"/><path d="m20.1 160.2 19.2-14.5"/><path d="m18.1 157.4 19.6-13.8"/><path d="m16.1 154.5 20.1-13.1"/><path d="m14.3 151.5 20.5-12.4"/><path d="m12.5 148.5 21-11.7"/><path d="m10.9 145.4 21.4-10.9"/><path d="m9.3 142.3 21.8-10.2"/><path d="m7.9 139.1 22.1-9.4"/><path d="m6.6 135.8 22.4-8.6"/><path d="m5.4 132.5 22.7-7.8"/><path d="m4.3 129.2 23-7"/><path d="m3.4 125.9 23.2-6.2"/><path d="m2.5 122.5 23.4-5.4"/><path d="m1.8 119.1 23.6-4.6"/><path d="m1.2 115.6 23.7-3.7"/><path d="m.7 112.2 23.9-2.9"/><path d="m.4 108.7 23.9-2.1"/><path d="m.1 105.2 24-1.2"/><path d="m0 101.7 24-.4"/><path d="m0 98.2 24 .5"/><path d="m.1 94.8 24 1.2"/><path d="m.4 91.3 23.9 2.1"/><path d="m.7 87.8 23.9 2.9"/><path d="m1.2 84.3 23.7 3.8"/><path d="m1.8 80.9 23.6 4.6"/><path d="m2.5 77.5 23.4 5.4"/><path d="m3.4 74.1 23.2 6.2"/><path d="m4.3 70.8 23 7"/><path d="m5.4 67.4 22.7 7.8"/><path d="m6.6 64.1 22.4 8.7"/><path d="m7.9 60.9 22.1 9.4"/><path d="m9.3 57.7 21.8 10.2"/><path d="m10.9 54.6 21.4 10.9"/><path d="m12.5 51.5 21 11.6"/><path d="m14.3 48.5 20.5 12.3"/><path d="m16.1 45.5 20.1 13.1"/><path d="m18.1 42.6 19.6 13.8"/><path d="m20.1 39.8 19.2 14.4"/><path d="m22.3 37 18.6 15.1"/><path d="m24.5 34.4 18.1 15.7"/><path d="m26.8 31.8 17.6 16.4"/><path d="m29.3 29.3 16.9 16.9"/><path d="m31.8 26.8 16.4 17.6"/><path d="m34.4 24.5 15.7 18.1"/><path d="m37 22.3 15.1 18.6"/><path d="m39.8 20.1 14.5 19.2"/><path d="m42.6 18.1 13.8 19.6"/><path d="m45.5 16.1 13.1 20.1"/><path d="m48.5 14.3 12.3 20.5"/><path d="m51.5 12.5 11.6 21"/><path d="m54.6 10.9 10.9 21.4"/><path d="m57.7 9.3 10.2 21.8"/><path d="m60.9 7.9 9.4 22.1"/><path d="m64.1 6.6 8.7 22.4"/><path d="m67.4 5.4 7.8 22.7"/><path d="m70.8 4.3 7 23"/><path d="m74.1 3.4 6.2 23.2"/><path d="m77.5 2.5 5.4 23.4"/><path d="m80.9 1.8 4.6 23.6"/><path d="m84.4 1.2 3.7 23.7"/><path d="m87.8.7 2.9 23.8"/><path d="m91.3.4 2.1 23.9"/><path d="m94.8.1 1.2 24"/><path d="m98.3 0 .4 24"/><path d="m101.7 0-.4 24"/><path d="m105.2.1-1.2 24"/><path d="m108.7.4-2.1 23.9"/><path d="m112.2.7-2.9 23.8"/><path d="m115.6 1.2-3.7 23.7"/><path d="m119.1 1.8-4.6 23.6"/><path d="m122.5 2.5-5.4 23.4"/><path d="m125.9 3.4-6.2 23.2"/><path d="m129.2 4.3-7 23"/><path d="m132.6 5.4-7.8 22.7"/><path d="m135.9 6.6-8.7 22.4"/><path d="m139.1 7.9-9.4 22.1"/><path d="m142.3 9.3-10.2 21.8"/><path d="m145.4 10.9-10.9 21.4"/><path d="m148.5 12.5-11.6 21"/><path d="m151.5 14.3-12.3 20.5"/><path d="m154.5 16.1-13.1 20.1"/><path d="m157.4 18.1-13.8 19.6"/><path d="m160.2 20.1-14.5 19.2"/><path d="m163 22.3-15.1 18.6"/><path d="m165.6 24.5-15.7 18.1"/><path d="m168.2 26.8-16.4 17.6"/><path d="m170.7 29.3-16.9 16.9"/><path d="m173.2 31.8-17.6 16.4"/><path d="m175.5 34.4-18.1 15.7"/><path d="m177.7 37-18.6 15.1"/><path d="m179.9 39.8-19.2 14.4"/><path d="m181.9 42.6-19.6 13.8"/><path d="m183.9 45.5-20.1 13.1"/><path d="m185.7 48.5-20.5 12.3"/><path d="m187.5 51.5-21 11.6"/><path d="m189.1 54.6-21.4 10.9"/><path d="m190.7 57.7-21.8 10.2"/><path d="m192.1 60.9-22.1 9.4"/><path d="m193.4 64.1-22.4 8.7"/><path d="m194.6 67.4-22.7 7.8"/><path d="m195.7 70.8-23 7"/><path d="m196.6 74.1-23.2 6.2"/><path d="m197.5 77.5-23.4 5.4"/><path d="m198.2 80.9-23.6 4.6"/><path d="m198.8 84.3-23.7 3.8"/><path d="m199.3 87.8-23.9 2.9"/><path d="m199.6 91.3-23.9 2.1"/><path d="m199.9 94.8-24 1.2"/><path d="m200 98.2-24 .5"/><path d="m200 101.7-24-.4"/><path d="m199.9 105.2-24-1.2"/><path d="m199.6 108.7-23.9-2.1"/><path d="m199.3 112.2-23.9-2.9"/><path d="m198.8 115.6-23.7-3.7"/><path d="m198.2 119.1-23.6-4.6"/><path d="m197.5 122.5-23.4-5.4"/><path d="m196.6 125.9-23.2-6.2"/><path d="m195.7 129.2-23-7"/><path d="m194.6 132.5-22.7-7.8"/><path d="m193.4 135.8-22.4-8.6"/><path d="m192.1 139.1-22.1-9.4"/><path d="m190.7 142.3-21.8-10.2"/><path d="m189.1 145.4-21.4-10.9"/><path d="m187.5 148.5-21-11.7"/><path d="m185.7 151.5-20.5-12.4"/><path d="m183.9 154.5-20.1-13.1"/><path d="m181.9 157.4-19.6-13.8"/><path d="m179.9 160.2-19.2-14.5"/><path d="m177.7 162.9-18.6-15.1"/><path d="m175.5 165.6-18.1-15.7"/><path d="m173.2 168.2-17.6-16.4"/><path d="m170.7 170.7-16.9-17"/><path d="m168.2 173.1-16.4-17.5"/><path d="m165.6 175.5-15.7-18.1"/><path d="m163 177.7-15.1-18.7"/><path d="m160.2 179.8-14.5-19.1"/><path d="m157.4 181.9-13.8-19.7"/><path d="m154.5 183.9-13.1-20.2"/></g></svg>